<svg width="12" height="12" viewBox="0 0 12 12" fill="none" xmlns="http://www.w3.org/2000/svg">
<path d="M0 11.0312C0 11.4625 0.2875 11.75 0.71875 11.75H10.7812C11.2125 11.75 11.5 11.4625 11.5 11.0312V6C11.5 5.56875 11.2125 5.28125 10.7812 5.28125C10.35 5.28125 10.0625 5.56875 10.0625 6V10.3125H1.4375V6C1.4375 5.56875 1.15 5.28125 0.71875 5.28125C0.2875 5.28125 0 5.56875 0 6V11.0312ZM6.46875 8.15625V3.125H7.90625C8.3375 3.125 8.40938 2.90937 8.12187 2.62187L5.75 0.25L3.37812 2.62187C3.09062 2.90937 3.1625 3.125 3.59375 3.125H5.03125V8.15625H6.46875Z" fill="#002F6C"/>
</svg>
